<svg width="90" height="96" viewBox="0 0 90 96" fill="none" xmlns="http://www.w3.org/2000/svg">
<path d="M45 67.1244H3.01003C1.05351 62.1354 0 56.5417 0 50.7968C0 25.852 20.1672 5.74487 45 5.74487V67.1244Z" fill="url(#paint0_linear_201_3)"/>
<path d="M85.9365 69.5433C85.9365 69.3921 86.087 69.241 86.087 69.0898C86.087 69.241 85.9365 69.3921 85.9365 69.5433C85.786 69.6945 85.786 69.9969 85.6355 70.1481C85.6355 70.2992 85.485 70.2992 85.485 70.4504C85.485 70.6016 85.3345 70.7528 85.3345 70.7528C85.184 71.0551 85.0335 71.2063 85.0335 71.5087C85.0335 71.6599 84.883 71.811 84.883 71.811C84.7325 72.1134 84.582 72.2646 84.4315 72.5669C84.4315 72.7181 84.281 72.8693 84.281 72.8693C84.1305 73.1717 83.8294 73.6252 83.6789 73.9276C83.6789 74.0788 83.5284 74.2299 83.5284 74.2299C83.5284 74.3811 83.3779 74.5323 83.3779 74.5323C83.2274 74.8347 82.9264 75.2882 82.7759 75.5906C82.7759 75.7418 82.6254 75.7418 82.4749 75.8929C82.3244 76.1953 82.0234 76.4977 81.8729 76.8C81.7224 76.9512 81.5719 77.1024 81.5719 77.2536C81.4214 77.5559 81.1204 77.8583 80.9699 78.1607C80.8194 78.3118 80.8194 78.3118 80.6689 78.463C80.5184 78.6142 80.5184 78.6142 80.3679 78.7654C80.2174 78.9166 80.2174 78.9166 80.0669 79.0677C79.9164 79.2189 79.9164 79.2189 79.7659 79.3701C79.4649 79.8236 79.0134 80.126 78.7124 80.5795C78.4114 80.8819 78.1104 81.1843 77.9599 81.4866C77.8094 81.6378 77.8094 81.6378 77.6589 81.789C77.5084 81.9402 77.5084 81.9402 77.3579 82.0914C77.2074 82.2425 77.2074 82.2425 77.0569 82.3937C76.9064 82.5449 76.6054 82.8473 76.4549 82.9984C76.3044 83.1496 76.3044 83.1496 76.1539 83.3008C75.5519 83.9055 74.9499 84.3591 74.3478 84.9638C74.1973 85.115 74.1973 85.115 74.0468 85.2662C73.7458 85.5685 73.4448 85.7197 73.1438 86.0221C72.9933 86.1733 72.9933 86.1732 72.8428 86.3244C72.6923 86.4756 72.6923 86.4756 72.5418 86.6268C72.3913 86.778 72.0903 86.9292 71.9398 87.0803C71.7893 87.2315 71.7893 87.2315 71.6388 87.3827C71.4883 87.5339 71.4883 87.5339 71.3378 87.6851C71.1873 87.8362 71.1873 87.8362 71.0368 87.9874C70.8863 88.1386 70.8863 88.1386 70.7358 88.2898C70.5853 88.2898 70.5853 88.441 70.4348 88.441C70.1338 88.5921 69.9833 88.7433 69.6823 88.8945C69.5318 89.0457 69.2308 89.1969 68.9298 89.3481C68.7793 89.4992 68.6288 89.4992 68.4783 89.6504C68.3278 89.6504 68.3278 89.8016 68.1773 89.8016C67.8763 89.9528 67.7258 90.104 67.4248 90.2551C67.2743 90.2551 67.1238 90.4063 67.1238 90.4063C66.9733 90.4063 66.8228 90.5575 66.8228 90.5575C66.5218 90.7087 66.3713 90.8599 66.0703 91.011C65.9197 91.011 65.7692 91.1622 65.7692 91.1622C65.4682 91.3134 65.0167 91.4646 64.7157 91.767C64.5652 91.767 64.4147 91.9181 64.4147 91.9181C64.1137 92.0693 63.9632 92.2205 63.6622 92.2205C63.5117 92.2205 63.3612 92.3717 63.2107 92.3717C63.0602 92.3717 63.0602 92.5229 62.9097 92.5229C62.9097 92.5229 62.9097 92.5229 62.7592 92.5229C62.4582 92.674 62.3077 92.674 62.0067 92.8252C61.8562 92.8252 61.7057 92.9764 61.5552 92.9764C61.4047 92.9764 61.2542 93.1276 61.1037 93.1276C60.9532 93.1276 60.8027 93.2788 60.6522 93.2788C60.3512 93.4299 60.2007 93.4299 59.8997 93.5811C59.7492 93.5811 59.5987 93.7323 59.4482 93.7323C59.1472 93.8835 58.9967 93.8835 58.6957 94.0347C58.5452 94.0347 58.3947 94.1859 58.2442 94.1859C58.0937 94.1859 57.9432 94.337 57.7927 94.337C57.4917 94.4882 57.1907 94.4882 57.0402 94.6394L56.5886 94.7906C56.2876 94.7906 55.9866 94.9418 55.8361 94.9418C55.5351 94.9418 55.3846 95.0929 55.0836 95.0929C54.9331 95.0929 54.7826 95.0929 54.6321 95.2441C54.4816 95.2441 54.3311 95.2441 54.1806 95.3953C53.8796 95.3953 53.5786 95.5465 53.2776 95.5465C53.1271 95.5465 52.9766 95.5465 52.8261 95.5465C52.6756 95.5465 52.5251 95.5465 52.3746 95.5465C52.0736 95.5465 51.7726 95.6977 51.6221 95.6977C51.4716 95.6977 51.4716 95.6977 51.3211 95.6977H51.1706C51.0201 95.6977 51.0201 95.6977 50.8696 95.6977C50.5686 95.6977 50.2676 95.6977 49.9666 95.8488C49.8161 95.8488 49.6656 95.8488 49.6656 95.8488H49.5151C49.3646 95.8488 49.3646 95.8488 49.2141 95.8488C48.9131 95.8488 48.6121 95.8488 48.311 95.8488C48.1605 95.8488 48.01 95.8488 48.01 95.8488C47.8595 95.8488 47.8595 95.8488 47.709 95.8488V69.5433H85.9365Z" fill="url(#paint1_linear_201_3)"/>
<path d="M90 50.7968C90 56.5417 88.9465 61.9843 86.99 67.1244H47.2575V5.74487C71.0368 6.95432 90 26.759 90 50.7968Z" fill="url(#paint2_linear_201_3)"/>
<path d="M4.06354 69.5433H45V96C44.699 96 44.398 96 44.097 96C43.6455 96 43.194 96 42.7425 96C42.592 96 42.4415 96 42.4415 96H42.291C42.1405 96 41.99 96 41.99 96C41.689 96 41.3879 96 41.0869 96C40.9364 96 40.9364 96 40.7859 96H40.6354C40.4849 96 40.3344 96 40.3344 96C40.0334 96 39.7324 96 39.4314 95.8488C39.2809 95.8488 39.2809 95.8488 39.1304 95.8488H38.9799C38.8294 95.8488 38.8294 95.8488 38.6789 95.8488C38.3779 95.8488 38.0769 95.6976 37.9264 95.6976C37.7759 95.6976 37.6254 95.6976 37.4749 95.6976C37.3244 95.6976 37.1739 95.6976 37.0234 95.6976C36.7224 95.6976 36.4214 95.5465 36.1204 95.5465C35.9699 95.5465 35.8194 95.5465 35.6689 95.3953C35.5184 95.3953 35.3679 95.3953 35.2174 95.2441C34.9164 95.2441 34.6154 95.0929 34.4649 95.0929C34.1639 95.0929 33.8629 94.9417 33.7124 94.9417L33.1104 94.4882C32.8094 94.4882 32.5084 94.337 32.3579 94.1858C32.2073 94.1858 32.0568 94.0346 31.9063 94.0346C31.7558 94.0346 31.6053 93.8835 31.4548 93.8835C31.1538 93.7323 30.8528 93.7323 30.7023 93.5811C30.5518 93.5811 30.4013 93.4299 30.2508 93.4299C29.9498 93.2787 29.7993 93.2787 29.4983 93.1276C29.3478 93.1276 29.1973 92.9764 29.0468 92.9764C28.8963 92.9764 28.7458 92.8252 28.5953 92.8252C28.4448 92.8252 28.2943 92.674 28.1438 92.674C27.8428 92.5228 27.6923 92.5228 27.3913 92.3717C27.3913 92.3717 27.3913 92.3717 27.2408 92.3717C27.0903 92.3717 27.0903 92.2205 26.9398 92.2205C26.7893 92.2205 26.6388 92.0693 26.4883 92.0693C26.1873 91.9181 26.0368 91.9181 25.7358 91.7669C25.5853 91.7669 25.4348 91.6157 25.4348 91.6157C25.1338 91.4646 24.6823 91.3134 24.3813 91.011C24.2308 91.011 24.0803 90.8598 24.0803 90.8598C23.7793 90.7087 23.6288 90.5575 23.3278 90.4063C23.1772 90.4063 23.0267 90.2551 23.0267 90.2551C22.8762 90.2551 22.7257 90.1039 22.7257 90.1039C22.4247 89.9528 22.2742 89.8016 21.9732 89.6504C21.8227 89.6504 21.8227 89.4992 21.6722 89.4992C21.5217 89.348 21.3712 89.348 21.2207 89.1968C20.9197 89.0457 20.7692 88.8945 20.4682 88.7433C20.1672 88.5921 20.0167 88.4409 19.7157 88.2898C19.5652 88.2898 19.5652 88.1386 19.4147 88.1386C19.2642 87.9874 19.2642 87.9874 19.1137 87.8362C18.9632 87.685 18.9632 87.685 18.8127 87.5339C18.6622 87.3827 18.6622 87.3827 18.5117 87.2315C18.3612 87.0803 18.3612 87.0803 18.2107 86.9291C18.0602 86.778 17.7592 86.6268 17.6087 86.4756C17.4582 86.3244 17.4582 86.3244 17.3077 86.1732C17.1572 86.022 17.1572 86.022 17.0067 85.8709C16.7057 85.5685 16.4047 85.4173 16.1037 85.115C15.9532 84.9638 15.9532 84.9638 15.8027 84.8126C15.2007 84.3591 14.5987 83.7543 13.9966 83.1496C13.8461 82.9984 13.8461 82.9984 13.6956 82.8472C13.5451 83.1496 13.3946 82.9984 13.2441 82.8472C13.0936 82.6961 13.0936 82.6961 12.9431 82.5449C12.7926 82.3937 12.7926 82.3937 12.6421 82.2425C12.4916 82.0913 12.4916 82.0913 12.3411 81.9402C12.0401 81.6378 11.7391 81.3354 11.5886 81.0331C11.2876 80.5795 10.8361 80.2772 10.5351 79.8236C10.3846 79.6724 10.3846 79.6724 10.2341 79.5213C10.0836 79.3701 10.0836 79.3701 9.9331 79.2189C9.7826 79.0677 9.7826 79.0677 9.6321 78.9165C9.6321 78.7654 9.4816 78.6142 9.4816 78.6142C9.3311 78.3118 9.03009 78.0094 8.87959 77.7071C8.72909 77.5559 8.57859 77.4047 8.57859 77.2535C8.27758 76.9512 8.12708 76.6488 7.97658 76.3465C7.82608 76.1953 7.82608 76.1953 7.67558 76.0441C7.37457 75.7417 7.22407 75.2882 7.07357 74.9858C7.07357 74.8346 6.92307 74.6835 6.92307 74.6835C6.92307 74.5323 6.77257 74.3811 6.77257 74.3811C6.62207 74.0787 6.32106 73.6252 6.17056 73.3228C6.17056 73.1717 6.02006 73.0205 6.02006 73.0205C5.86956 72.7181 5.71906 72.5669 5.56855 72.2646C5.56855 72.1134 5.41805 71.9622 5.41805 71.9622C5.26755 71.6598 5.11705 71.5087 5.11705 71.2063C5.11705 71.0551 4.96655 70.9039 4.96655 70.9039C4.96655 70.7528 4.81605 70.7528 4.81605 70.6016C4.21404 69.9968 4.06354 69.6945 4.06354 69.5433Z" fill="url(#paint3_linear_201_3)"/>
<path d="M85.9365 69.5433C85.786 69.6945 85.786 69.9969 85.6355 70.148C85.6355 70.2992 85.485 70.2992 85.485 70.4504C85.485 70.6016 85.3345 70.7528 85.3345 70.7528C85.184 71.0551 85.0335 71.2063 85.0335 71.5087C85.0335 71.6598 84.883 71.811 84.883 71.811C84.7325 72.1134 84.582 72.2646 84.4315 72.5669C84.4315 72.7181 84.281 72.8693 84.281 72.8693C84.1305 73.1717 83.8294 73.6252 83.6789 73.9276C83.6789 74.0787 83.5284 74.2299 83.5284 74.2299C83.5284 74.3811 83.3779 74.5323 83.3779 74.5323C83.2274 74.8346 82.9264 75.2882 82.7759 75.5906C82.7759 75.7417 82.6254 75.7417 82.4749 75.8929C82.3244 76.1953 82.0234 76.4976 81.8729 76.8C81.7224 76.9512 81.5719 77.1024 81.5719 77.2535C81.4214 77.5559 81.1204 77.8583 80.9699 78.1606C80.8194 78.3118 80.8194 78.3118 80.6689 78.463C80.5184 78.6142 80.5184 78.6142 80.3679 78.7654C80.2174 78.9165 80.2174 78.9165 80.0669 79.0677C79.9164 79.2189 79.9164 79.2189 79.7659 79.3701C79.4649 79.8236 79.0134 80.126 78.7124 80.5795C78.4114 80.8819 78.1104 81.1843 77.9599 81.4866C77.8094 81.6378 77.8094 81.6378 77.6589 81.789C77.5084 81.9402 77.5084 81.9402 77.3579 82.0913C77.2074 82.2425 77.2074 82.2425 77.0569 82.3937C76.9064 82.5449 76.6054 82.8473 76.4549 82.9984C76.3044 83.1496 76.3044 83.1496 76.1539 83.3008C75.5519 83.9055 74.9499 84.3591 74.3478 84.9638C74.1973 85.115 74.1973 85.115 74.0468 85.2661C73.7458 85.5685 73.4448 85.7197 73.1438 86.0221C72.9933 86.1732 72.9933 86.1732 72.8428 86.3244C72.6923 86.4756 72.6923 86.4756 72.5418 86.6268C72.3913 86.778 72.0903 86.9291 71.9398 87.0803C71.7893 87.2315 71.7893 87.2315 71.6388 87.3827C71.4883 87.5339 71.4883 87.5339 71.3378 87.685C71.1873 87.8362 71.1873 87.8362 71.0368 87.9874C70.8863 88.1386 70.8863 88.1386 70.7358 88.2898C70.5853 88.2898 70.5853 88.441 70.4348 88.441C70.1338 88.5921 69.9833 88.7433 69.6823 88.8945C69.5318 89.0457 69.2308 89.1969 68.9298 89.348C68.7793 89.4992 68.6288 89.4992 68.4783 89.6504C68.3278 89.6504 68.3278 89.8016 68.1773 89.8016C67.8763 89.9528 67.7258 90.1039 67.4248 90.2551C67.2743 90.2551 67.1238 90.4063 67.1238 90.4063C66.9733 90.4063 66.8228 90.5575 66.8228 90.5575C66.5218 90.7087 66.3713 90.8599 66.0703 91.011C65.9197 91.011 65.7692 91.1622 65.7692 91.1622C65.4682 91.3134 65.0167 91.4646 64.7157 91.7669C64.5652 91.7669 64.4147 91.9181 64.4147 91.9181C64.1137 92.0693 63.9632 92.2205 63.6622 92.2205C63.5117 92.2205 63.3612 92.3717 63.2107 92.3717C63.0602 92.3717 63.0602 92.5228 62.9097 92.5228C62.9097 92.5228 62.9097 92.5228 62.7592 92.5228C62.4582 92.674 62.3077 92.674 62.0067 92.8252C61.8562 92.8252 61.7057 92.9764 61.5552 92.9764C61.4047 92.9764 61.2542 93.1276 61.1037 93.1276C60.9532 93.1276 60.8027 93.2787 60.6522 93.2787C60.3512 93.4299 60.2007 93.4299 59.8997 93.5811C59.7492 93.5811 59.5987 93.7323 59.4482 93.7323C59.1472 93.8835 58.9967 93.8835 58.6957 94.0347C58.5452 94.0347 58.3947 94.1858 58.2442 94.1858C58.0937 94.1858 57.9432 94.337 57.7927 94.337C57.4917 94.4882 57.1907 94.4882 57.0402 94.6394L56.5886 94.7906C56.2876 94.7906 55.9866 94.9417 55.8361 94.9417C55.5351 94.9417 55.3846 95.0929 55.0836 95.0929C54.9331 95.0929 54.7826 95.0929 54.6321 95.2441C54.4816 95.2441 54.3311 95.2441 54.1806 95.3953C53.8796 95.3953 53.5786 95.5465 53.2776 95.5465C53.1271 95.5465 52.9766 95.5465 52.8261 95.5465C52.6756 95.5465 52.5251 95.5465 52.3746 95.5465C52.0736 95.5465 51.7726 95.6976 51.6221 95.6976C51.4716 95.6976 51.4716 95.6976 51.3211 95.6976H51.1706C51.0201 95.6976 51.0201 95.6976 50.8696 95.6976C50.5686 95.6976 50.2676 95.6976 49.9666 95.8488C49.8161 95.8488 49.6656 95.8488 49.6656 95.8488H49.5151C49.3646 95.8488 49.3646 95.8488 49.2141 95.8488C48.9131 95.8488 48.6121 95.8488 48.311 95.8488C48.1605 95.8488 48.01 95.8488 48.01 95.8488C47.8595 95.8488 47.8595 95.8488 47.709 95.8488V69.5433H85.9365Z" fill="url(#paint4_linear_201_3)"/>
<path d="M45 0L39.5819 74.3811H45V0Z" fill="#0A0D0F"/>
<defs>
<linearGradient id="paint0_linear_201_3" x1="19.2763" y1="23.3328" x2="31.4581" y2="56.8368" gradientUnits="userSpaceOnUse">
<stop stop-color="#89B92D"/>
<stop offset="1" stop-color="#009741"/>
</linearGradient>
<linearGradient id="paint1_linear_201_3" x1="61.9193" y1="69.1507" x2="67.3263" y2="84.0216" gradientUnits="userSpaceOnUse">
<stop stop-color="#89B92D"/>
<stop offset="1" stop-color="#009741"/>
</linearGradient>
<linearGradient id="paint2_linear_201_3" x1="54.6759" y1="16.2601" x2="69.0273" y2="55.7304" gradientUnits="userSpaceOnUse">
<stop stop-color="#89B92D"/>
<stop offset="1" stop-color="#009741"/>
</linearGradient>
<linearGradient id="paint3_linear_201_3" x1="24.3864" y1="68.0775" x2="26.3986" y2="97.2874" gradientUnits="userSpaceOnUse">
<stop stop-color="#1171A1"/>
<stop offset="0.9637" stop-color="#302D7E"/>
</linearGradient>
<linearGradient id="paint4_linear_201_3" x1="65.6442" y1="68.2206" x2="67.4592" y2="94.5665" gradientUnits="userSpaceOnUse">
<stop stop-color="#1171A1"/>
<stop offset="0.9637" stop-color="#302D7E"/>
</linearGradient>
</defs>
</svg>
